<svg width="46" height="46" viewBox="0 0 46 46" fill="none" xmlns="http://www.w3.org/2000/svg">
<g id="adobe icons set">
<g id="icons">
<g id="Group">
<path id="Vector" d="M7.18695 0H38.813C42.782 0 46 3.21801 46 7.18696V38.813C46 42.782 42.782 46 38.813 46H7.18695C3.21801 46 0 42.782 0 38.813V7.18696C0 3.21801 3.21801 0 7.18695 0Z" fill="#F1EFE4"/>
<path id="Vector_2" d="M18.8893 28.0837H11.8684L10.4399 32.7129C10.3993 32.8789 10.2468 32.9947 10.075 32.987H6.51725C6.31456 32.987 6.24505 32.875 6.3049 32.653L12.3857 15.3912C12.4456 15.2097 12.5073 15.0013 12.5672 14.7677C12.6463 14.3623 12.6869 13.9492 12.6888 13.5361C12.6753 13.4337 12.7467 13.3372 12.849 13.3237C12.8664 13.3218 12.8838 13.3218 12.9012 13.3237H17.733C17.8739 13.3237 17.955 13.3739 17.9762 13.4762L24.8756 32.6839C24.9354 32.8866 24.8755 32.9889 24.6922 32.9889H20.7406C20.5997 33.0044 20.4703 32.9136 20.4375 32.7766L18.8874 28.0856L18.8893 28.0837ZM12.9629 24.8483H17.7658C17.6442 24.4429 17.5013 23.6109 17.3392 23.1052C17.177 22.5975 17.0052 22.0569 16.8218 21.4797C16.6404 20.9025 16.457 20.3254 16.2755 19.7482C16.0941 19.171 15.9261 18.6131 15.7717 18.0764C15.6173 17.5398 15.4841 17.0475 15.3624 16.6035H15.3315C15.1597 17.4239 14.9474 18.2366 14.6926 19.0358C14.4088 19.947 14.1192 20.8794 13.8258 21.833C13.5343 22.7847 13.2448 24.0414 12.961 24.8522" fill="#12110D"/>
<path id="Vector_3" d="M36.0215 26.4258H30.0334C30.1202 27.0416 30.3306 27.6342 30.6511 28.167C30.9908 28.6728 31.4715 29.0705 32.0333 29.3079C32.8093 29.6554 33.6491 29.8349 34.4984 29.8311C35.0679 29.8446 35.6354 29.8002 36.1953 29.6979C36.8053 29.5878 37.4037 29.4102 37.9732 29.1651C38.0736 29.084 38.1257 29.1342 38.1257 29.3176V32.2055C38.1315 32.2846 38.1141 32.3618 38.0794 32.4333C38.0446 32.4892 37.9983 32.5356 37.9423 32.5703C37.313 32.8676 36.6489 33.0877 35.9656 33.2228C35.1509 33.3386 34.3266 33.3715 33.5043 33.3193C32.2649 33.3579 31.0314 33.1301 29.8867 32.6514C28.9678 32.246 28.1551 31.6321 27.5142 30.858C26.9177 30.1283 26.4717 29.2867 26.2073 28.3813C25.9447 27.4875 25.8115 26.5609 25.8115 25.6305C25.8096 24.6131 25.9679 23.6035 26.2826 22.6364C26.5856 21.6924 27.0644 20.816 27.6956 20.0535C28.3172 19.2987 29.0971 18.6867 29.9774 18.2601C30.9677 17.8026 32.0487 17.5787 33.1394 17.6057C34.2011 17.5922 35.2532 17.8007 36.23 18.2157C37.0099 18.569 37.6933 19.1056 38.2203 19.7813C38.7164 20.4241 39.0967 21.15 39.3419 21.9241C39.5812 22.6711 39.7048 23.4491 39.7067 24.2348C39.7067 24.6807 39.6913 25.0861 39.6604 25.4509C39.6353 25.6671 39.5947 25.8833 39.5426 26.0957C39.5272 26.2347 39.4094 26.3389 39.2685 26.3389C39.1469 26.3389 38.9384 26.3544 38.6469 26.3853C38.3535 26.4161 37.8303 26.4026 37.396 26.4142C36.9616 26.4258 36.4983 26.4297 36.0138 26.4297M30.0083 24.0147H33.9888C34.4753 24.0147 34.8343 24.0089 35.0679 23.9993C35.2165 23.9993 35.3633 23.9838 35.508 23.9529V23.7715C35.5254 23.4085 35.5042 23.0437 35.4443 22.6846C35.1065 21.619 34.0988 20.9106 32.983 20.9531C31.9387 20.8893 30.9542 21.4511 30.4754 22.3816C30.2476 22.9028 30.0913 23.4529 30.0102 24.0147" fill="#12110D"/>
</g>
</g>
</g>
</svg>
