<svg width="46" height="46" viewBox="0 0 46 46" fill="none" xmlns="http://www.w3.org/2000/svg">
<g id="Group">
<path id="Vector" d="M7.18696 0H38.813C42.782 0 46 3.21801 46 7.18696V38.813C46 42.782 42.782 46 38.813 46H7.18696C3.21801 46 0 42.782 0 38.813V7.18696C0 3.21801 3.21801 0 7.18696 0Z" fill="#F1EFE4"/>
<path id="Vector_2" d="M22.428 28.0047H15.4071L13.9728 32.6937C13.9322 32.8597 13.7797 32.9755 13.6079 32.9678H10.0502C9.84747 32.9678 9.77605 32.8558 9.83589 32.6338L15.8993 15.1288C15.9592 14.9473 16.021 14.7388 16.0808 14.5053C16.1638 14.1655 16.2063 13.8161 16.2024 13.4648C16.187 13.3625 16.2584 13.2659 16.3626 13.2524C16.38 13.2505 16.3974 13.2505 16.4148 13.2524H21.2466C21.3895 13.2524 21.4705 13.3026 21.4898 13.4049L28.4085 32.6647C28.4683 32.8674 28.4085 32.9697 28.2251 32.9697H24.2735C24.1326 32.9852 24.0032 32.8945 23.9685 32.7574L22.4242 28.0066L22.428 28.0047ZM16.463 24.7693H21.6076C21.486 24.3639 21.069 23.4277 20.9069 22.9219C20.7447 22.4142 20.5227 22.0127 20.3393 21.4355C20.1559 20.8583 19.9745 20.2811 19.793 19.7039C19.6115 19.1267 19.4436 18.5688 19.2892 18.0321C19.1367 17.4955 19.0015 17.0032 18.8799 16.5592H18.849C18.6772 17.3797 18.4649 18.1924 18.2101 18.9916C17.9263 19.9027 17.6387 20.8351 17.3452 21.7887C17.0537 22.7404 16.7507 23.9643 16.465 24.7732L16.463 24.7693Z" fill="#12110D"/>
<path id="Vector_3" d="M32.5225 16.4241C31.8952 16.4492 31.2871 16.206 30.8508 15.7562C30.4164 15.2871 30.1867 14.6636 30.2118 14.0227C30.1887 13.3895 30.4377 12.7756 30.8952 12.3355C31.3469 11.9012 31.955 11.6657 32.5824 11.683C33.2214 11.6483 33.8449 11.8857 34.3005 12.3355C34.7232 12.793 34.9491 13.3992 34.924 14.0227C34.951 14.6655 34.7136 15.291 34.2715 15.7562C33.8082 16.2137 33.175 16.455 32.5264 16.4241M30.5593 32.6648V18.7677C30.5593 18.5843 30.6404 18.4936 30.8025 18.4936H34.2541C34.4163 18.4936 34.4974 18.5843 34.4974 18.7677V32.6648C34.4974 32.8675 34.4163 32.9698 34.2541 32.9698H30.8315C30.6481 32.9698 30.5574 32.8694 30.5574 32.6648" fill="#12110D"/>
</g>
</svg>
