<svg xmlns="http://www.w3.org/2000/svg" width="130" height="41" viewBox="0 0 130 41" fill="none">
  <path d="M65.001 31.999C59.4271 31.999 53.8553 29.872 49.6126 25.6198L45 20.999L49.6106 16.3782C58.096 7.87394 71.904 7.87394 80.3894 16.3782L85 20.999L80.3894 25.6198C76.1467 29.872 70.5729 31.999 65.001 31.999ZM51.009 24.2183C58.723 31.9495 71.275 31.9495 78.989 24.2183L82.2012 20.999L78.989 17.7797C71.277 10.0466 58.725 10.0486 51.009 17.7797L47.7968 20.999L51.009 24.2183Z" fill="#EB4F25"/>
  <path d="M65.0012 28.0355C68.8792 28.0355 72.0229 24.8848 72.0229 20.9982C72.0229 17.1116 68.8792 13.9609 65.0012 13.9609C61.1232 13.9609 57.9795 17.1116 57.9795 20.9982C57.9795 24.8848 61.1232 28.0355 65.0012 28.0355Z" fill="#F2BC00"/>
  <path d="M46.4971 21.0984L50.3106 17.2764C58.4241 9.14485 71.5774 9.14485 79.689 17.2764L83.5025 21.0984H46.4971Z" fill="#EB4F25"/>
  <path d="M46 21L49.916 24.8525C58.2476 33.0492 71.7544 33.0492 80.084 24.8525L84 21H46Z" fill="#EB4F25"/>
  <rect x="1" y="1" width="128" height="39" rx="19" stroke="#D83515" stroke-width="2"/>
</svg>