<svg width="46" height="46" viewBox="0 0 46 46" fill="none" xmlns="http://www.w3.org/2000/svg">
<g id="Group">
<path id="Vector" d="M7.18696 0H38.813C42.782 0 46 3.21801 46 7.18696V38.813C46 42.782 42.782 46 38.813 46H7.18696C3.21801 46 0 42.782 0 38.813V7.18696C0 3.21801 3.21801 0 7.18696 0Z" fill="#F1EFE4"/>
<path id="Vector_2" d="M10.2705 32.6977V13.2757C10.2705 13.1348 10.3323 13.0634 10.4539 13.0634C10.7782 13.0634 11.1624 13.0576 11.6083 13.0479C12.0542 13.0383 12.5349 13.0286 13.0522 13.017C13.5696 13.0074 14.1159 12.9977 14.6931 12.9862C15.2703 12.9765 15.8436 12.9707 16.4092 12.9707C17.7297 12.936 19.0462 13.1329 20.299 13.5479C21.2507 13.8703 22.1175 14.3992 22.8375 15.098C23.4476 15.7042 23.9205 16.4339 24.2217 17.2408C24.5054 18.0246 24.6502 18.8527 24.6464 19.6866C24.7043 21.1094 24.3105 22.5128 23.5209 23.6981C22.7661 24.7559 21.7063 25.5571 20.4824 25.9933C19.1176 26.4837 17.6775 26.7269 16.2278 26.7076C15.7819 26.7076 15.4672 26.7018 15.2857 26.6921C15.1043 26.6825 14.8302 26.6767 14.4653 26.6767V32.6649C14.4846 32.7981 14.392 32.9197 14.2607 32.939C14.2375 32.9428 14.2163 32.9428 14.1931 32.939H10.4829C10.34 32.939 10.2705 32.8579 10.2705 32.6958M14.4653 16.708V22.9992C14.7278 23.0205 14.9711 23.0301 15.195 23.0301H16.1969C16.9324 23.0417 17.666 22.9394 18.3706 22.7271C18.9728 22.5475 19.5114 22.2001 19.9207 21.7232C20.3434 21.1673 20.5539 20.4762 20.5133 19.7774C20.5288 19.1886 20.3763 18.6095 20.0732 18.1056C19.7527 17.6192 19.2914 17.2427 18.7508 17.0265C18.0443 16.7524 17.2895 16.6231 16.5328 16.6462C16.0463 16.6462 15.6158 16.652 15.2413 16.6617C14.8668 16.6713 14.6082 16.6868 14.4672 16.708" fill="#12110D"/>
<path id="Vector_3" d="M36.4769 21.7846C35.7723 21.4951 35.0387 21.2808 34.2878 21.1456C33.5947 20.9874 32.8863 20.9043 32.1759 20.9024C31.7917 20.8928 31.4076 20.9391 31.035 21.0395C30.7995 21.0916 30.5891 21.2267 30.4424 21.4178C30.3439 21.5723 30.2899 21.7518 30.2899 21.9352C30.2957 22.1128 30.3594 22.2846 30.4713 22.4217C30.6489 22.6301 30.8671 22.802 31.1103 22.9255C31.5446 23.1591 31.9906 23.3676 32.4481 23.549C33.4693 23.8907 34.4422 24.3559 35.3514 24.9312C35.9692 25.3211 36.4827 25.8597 36.8417 26.4968C37.1429 27.101 37.2954 27.767 37.2819 28.4426C37.2992 29.3326 37.0463 30.209 36.5522 30.9503C36.0251 31.7031 35.2916 32.29 34.4403 32.6374C33.3554 33.0737 32.1894 33.2803 31.0215 33.2455C30.1586 33.2533 29.2996 33.1722 28.454 33.0023C27.7494 32.8787 27.0603 32.6741 26.402 32.3942C26.2669 32.3247 26.1839 32.1819 26.1897 32.0294V28.7476C26.1819 28.682 26.2128 28.6183 26.2649 28.5797C26.319 28.5488 26.3846 28.5565 26.431 28.5951C27.2012 29.0256 28.0313 29.3384 28.8942 29.5217C29.62 29.7032 30.3652 29.7997 31.1122 29.8094C31.6489 29.8422 32.1855 29.7495 32.6778 29.5353C32.9867 29.3943 33.1836 29.0855 33.1797 28.7438C33.1527 28.433 32.9847 28.1531 32.7241 27.9832C32.1489 27.6068 31.5253 27.3095 30.869 27.1029C29.9154 26.7709 29.01 26.3095 28.1799 25.7343C27.5853 25.3211 27.097 24.7748 26.7514 24.1378C26.4522 23.5394 26.3016 22.8772 26.3113 22.2074C26.3113 21.4024 26.5313 20.6148 26.9502 19.9276C27.429 19.1708 28.1143 18.5705 28.927 18.194C29.869 17.6786 30.9269 17.4161 32.0002 17.4277C32.8554 17.3833 33.7106 17.3948 34.5638 17.4643C35.2568 17.6053 35.9306 17.8311 36.5715 18.1342C36.6545 18.1574 36.722 18.2191 36.7529 18.3021C36.7722 18.3774 36.7838 18.4527 36.7838 18.5299V21.6012C36.7877 21.6746 36.7529 21.7441 36.6931 21.7827C36.6274 21.8232 36.5444 21.8232 36.4807 21.7827L36.4769 21.7846Z" fill="#12110D"/>
</g>
</svg>
